<?xml version="1.0" standalone="no"?>
<!DOCTYPE svg PUBLIC "-//W3C//DTD SVG 20010904//EN"
 "http://www.w3.org/TR/2001/REC-SVG-20010904/DTD/svg10.dtd">
<svg version="1.0" xmlns="http://www.w3.org/2000/svg"
 width="273.000000pt" height="267.000000pt" viewBox="0 0 273.000000 267.000000"
 preserveAspectRatio="xMidYMid meet">

<g transform="translate(0.000000,267.000000) scale(0.100000,-0.100000)"
fill="#000000" stroke="none">
<path d="M1067 2172 l-288 -288 31 -29 31 -29 257 257 257 257 257 -257 258
-258 32 33 33 32 -285 285 c-157 157 -287 285 -290 285 -3 0 -135 -130 -293
-288z"/>
<path d="M1100 1885 l-255 -255 257 -257 257 -257 256 254 c140 140 254 257
252 260 -1 3 -117 119 -257 257 l-255 253 -255 -255z m450 -450 l-195 -195
-195 195 -195 195 195 195 195 195 195 -195 195 -195 -195 -195z"/>
<path d="M1260 1725 l-95 -95 95 -95 95 -95 95 95 95 95 -95 95 -95 95 -95
-95z"/>
<path d="M807 1402 l-27 -28 290 -289 290 -290 287 287 288 288 -33 32 -32 33
-258 -258 -257 -257 -255 255 c-140 140 -257 255 -261 255 -3 0 -17 -13 -32
-28z"/>
<path d="M410 370 c-32 -32 -23 -51 33 -75 45 -19 52 -50 10 -43 -16 3 -34 7
-42 9 -31 9 -19 -20 12 -30 42 -14 82 -1 92 29 9 27 -8 46 -51 60 -19 7 -34
18 -34 27 0 13 8 14 40 9 31 -5 40 -3 40 8 0 14 -29 26 -62 26 -10 0 -27 -9
-38 -20z"/>
<path d="M590 375 c0 -9 9 -15 25 -15 24 0 25 -2 25 -65 0 -58 2 -65 20 -65
18 0 20 7 20 65 0 63 1 65 25 65 16 0 25 6 25 15 0 12 -14 15 -70 15 -56 0
-70 -3 -70 -15z"/>
<path d="M840 338 c-52 -121 -51 -116 -34 -114 9 1 20 10 26 19 12 22 83 24
92 2 3 -8 13 -15 22 -15 9 0 14 6 11 13 -35 92 -64 147 -78 147 -10 0 -25 -20
-39 -52z m55 -25 c5 -20 3 -23 -18 -23 -24 0 -25 2 -14 30 12 31 20 29 32 -7z"/>
<path d="M1069 361 c-17 -18 -29 -40 -29 -56 0 -32 49 -85 79 -85 23 0 71 20
71 30 0 15 -13 18 -36 8 -18 -8 -31 -8 -50 0 -21 10 -25 18 -22 49 4 46 26 62
68 46 36 -14 53 3 25 24 -31 22 -74 16 -106 -16z"/>
<path d="M1280 310 c0 -72 2 -80 19 -80 14 0 18 5 14 18 -2 10 3 25 12 32 14
12 20 10 41 -17 13 -17 33 -33 44 -36 23 -6 20 0 -21 53 l-27 35 29 35 c40 47
17 52 -30 6 -40 -39 -51 -38 -51 6 0 18 -5 28 -15 28 -12 0 -15 -16 -15 -80z"/>
<path d="M1510 307 c0 -68 3 -84 15 -84 12 0 15 16 15 84 0 67 -3 83 -15 83
-12 0 -15 -16 -15 -83z"/>
<path d="M1640 310 c0 -64 3 -80 15 -80 10 0 15 10 15 30 0 28 2 30 40 30 29
0 40 4 40 15 0 12 -9 15 -37 13 -33 -3 -38 0 -41 20 -3 20 1 22 42 22 34 0 46
4 46 15 0 12 -13 15 -60 15 l-60 0 0 -80z"/>
<path d="M1850 311 c0 -61 3 -80 15 -85 13 -4 15 8 15 79 0 69 -3 85 -15 85
-12 0 -15 -15 -15 -79z"/>
<path d="M1980 310 l0 -80 60 0 c33 0 60 4 60 10 0 6 -20 10 -45 10 -38 0 -45
3 -45 20 0 17 7 20 40 20 29 0 40 4 40 15 0 11 -11 15 -40 15 -33 0 -40 3 -40
20 0 17 7 20 45 20 33 0 45 4 45 15 0 12 -13 15 -60 15 l-60 0 0 -80z"/>
<path d="M2190 311 c0 -61 3 -80 15 -85 11 -4 15 2 15 24 0 38 30 41 53 6 9
-13 25 -26 36 -29 25 -6 26 -3 5 29 -15 23 -15 26 0 43 41 45 3 91 -76 91
l-48 0 0 -79z m104 33 c9 -24 -2 -34 -40 -34 -30 0 -34 3 -34 25 0 22 4 25 34
25 22 0 36 -6 40 -16z"/>
</g>
</svg>
